<svg width="17" height="16" viewBox="0 0 17 16" fill="none" xmlns="http://www.w3.org/2000/svg"><path fill-rule="evenodd" clip-rule="evenodd" d="M8.49416 2.23665C6.72479 0.690357 4.10808 0.373932 2.07601 2.11017C-0.122021 3.98822 -0.441375 7.15115 1.29678 9.3878C1.95656 10.2368 3.24431 11.5123 4.48188 12.6804C5.73393 13.8622 6.98309 14.9789 7.59911 15.5245L7.61084 15.5349C7.66876 15.5862 7.74087 15.6501 7.80999 15.7022C7.89275 15.7645 8.01155 15.8419 8.17019 15.8892C8.3811 15.9521 8.6078 15.9521 8.81871 15.8892C8.97736 15.8419 9.09616 15.7645 9.17891 15.7022C9.24804 15.6501 9.32015 15.5862 9.37806 15.5349L9.38979 15.5245C10.0058 14.9789 11.255 13.8622 12.507 12.6804C13.7446 11.5123 15.0323 10.2368 15.6921 9.3878C17.4236 7.15974 17.1536 3.97242 14.905 2.10354C12.8503 0.395782 10.2615 0.689769 8.49416 2.23665ZM7.91982 3.80105C6.6305 2.29372 4.58106 1.95901 3.05843 3.25998C1.46796 4.61891 1.25395 6.86805 2.49093 8.45979C3.06796 9.20231 4.27012 10.4009 5.51996 11.5806C6.68677 12.6819 7.85391 13.7286 8.49445 14.2971C9.13499 13.7286 10.3021 12.6819 11.4689 11.5806C12.7188 10.4009 13.9209 9.20231 14.498 8.45979C15.7416 6.85946 15.5434 4.60066 13.9383 3.26661C12.3754 1.96755 10.3527 2.30038 9.06908 3.80105C8.92542 3.969 8.71547 4.0657 8.49445 4.0657C8.27344 4.0657 8.06348 3.969 7.91982 3.80105Z" fill="#475467"></path></svg>